SplineFontDB: 3.2
FontName: Untitled2
FullName: Untitled2
FamilyName: Untitled2
Weight: Regular
Copyright: Copyright (c) 2021, sergei
UComments: "2021-7-9: Created with FontForge (http://fontforge.org)"
Version: 001.000
ItalicAngle: 0
UnderlinePosition: -102
UnderlineWidth: 51
Ascent: 819
Descent: 205
InvalidEm: 0
LayerCount: 2
Layer: 0 0 "Back" 1
Layer: 1 0 "Fore" 0
XUID: [1021 386 1253518015 14269954]
StyleMap: 0x0000
FSType: 0
OS2Version: 0
OS2_WeightWidthSlopeOnly: 0
OS2_UseTypoMetrics: 1
CreationTime: 1625798303
ModificationTime: 1627002822
OS2TypoAscent: 0
OS2TypoAOffset: 1
OS2TypoDescent: 0
OS2TypoDOffset: 1
OS2TypoLinegap: 92
OS2WinAscent: 0
OS2WinAOffset: 1
OS2WinDescent: 0
OS2WinDOffset: 1
HheadAscent: 0
HheadAOffset: 1
HheadDescent: 0
HheadDOffset: 1
MarkAttachClasses: 1
DEI: 91125
Encoding: ISO8859-1
UnicodeInterp: none
NameList: AGL For New Fonts
DisplaySize: -48
AntiAlias: 1
FitToEm: 0
WinInfo: 0 38 13
BeginPrivate: 1
BlueValues 15 [-20 0 701 701]
EndPrivate
Grid
-1024 -80 m 4
 2048 -80 l 1028
  Named: "t2"
-1024 46 m 0
 2048 46 l 1024
  Named: "t1"
-1024 158 m 0
 2048 158 l 1024
  Named: "5"
-1024 272 m 0
 2048 272 l 1024
  Named: "4"
-1024 384 m 0
 2048 384 l 1024
  Named: "3"
-1024 494 m 0
 2048 494 l 1024
  Named: "2"
-1024 700 m 0
 2048 700 l 1024
  Named: "0"
-1024 600 m 0
 2048 600 l 1024
  Named: "1"
818.416992188 1331 m 0
 818.416992188 -717 l 1024
  Named: "full"
666.440429688 1331 m 0
 666.440429688 -717 l 1024
  Named: "half"
513 1331 m 0
 513 -717 l 1024
EndSplineSet
AnchorClass2: "123""" 
BeginChars: 256 34

StartChar: A
Encoding: 65 65 0
Width: 1000
VWidth: 0
Flags: W
HStem: 284 46<488.852 536.895>
VStem: 488.844 48.0596<284.065 329.935>
LayerCount: 2
Fore
SplineSet
488.84375 307 m 0
 488.84375 320 499.857421875 330 512.874023438 330 c 0
 525.889648438 330 536.903320312 320 536.903320312 307 c 0
 536.903320312 294 525.889648438 284 512.874023438 284 c 0
 499.857421875 284 488.84375 294 488.84375 307 c 0
EndSplineSet
Validated: 1
EndChar

StartChar: B
Encoding: 66 66 1
Width: 1024
VWidth: 0
Flags: W
HStem: 680 20G<503 513>
VStem: 503 10<46 158 168 700>
LayerCount: 2
Fore
SplineSet
503 700 m 1
 513 700 l 1
 513 168 l 1
 666.440429688 112 l 1
 666.440429688 102 l 1
 513 158 l 1
 513 46 l 1
 503 46 l 1
 503 700 l 1
EndSplineSet
EndChar

StartChar: Z
Encoding: 90 90 2
Width: 1024
VWidth: 0
Flags: W
HStem: 680 20G<503 513>
VStem: 503 10<46 158 168 272 282 384 394 700>
LayerCount: 2
Fore
SplineSet
503 700 m 1
 513 700 l 1
 513 394 l 1
 666.440429688 337 l 5
 666.440429688 327 l 5
 513 384 l 1
 513 282 l 1
 818.416992188 168 l 1
 818.416992188 158 l 1
 513 272 l 1
 513 168 l 1
 818.416992188 56 l 1
 818.416992188 46 l 1
 513 158 l 1
 513 46 l 1
 819 -80 l 1
 513.420898438 -80 l 1
 818.416992188 -205 l 1
 503 -205 l 1
 503 700 l 1
EndSplineSet
EndChar

StartChar: M
Encoding: 77 77 3
Width: 1024
VWidth: 0
Flags: W
HStem: 680 20G<503 513>
VStem: 503 10<46 158 168 700>
LayerCount: 2
Fore
SplineSet
503 700 m 1
 513 700 l 1
 513 168 l 1
 818.416992188 56 l 1
 818.416992188 46 l 1
 513 158 l 1
 513 46 l 1
 818.416992188 -80 l 5
 503 -80 l 5
 503 700 l 1
EndSplineSet
EndChar

StartChar: Y
Encoding: 89 89 4
Width: 1024
VWidth: 0
Flags: W
HStem: 680 20G<503 513>
VStem: 503 10<46 158 168 272 282 700>
LayerCount: 2
Fore
SplineSet
503 700 m 1
 513 700 l 5
 513 282 l 5
 818.416992188 168 l 1
 818.416992188 158 l 1
 513 272 l 1
 513 168 l 1
 818.416992188 56 l 1
 818.416992188 46 l 1
 513 158 l 1
 513 46 l 1
 819 -80 l 1
 513.420898438 -80 l 1
 818.416992188 -205 l 1
 503 -205 l 1
 503 700 l 1
EndSplineSet
EndChar

StartChar: X
Encoding: 88 88 5
Width: 1024
VWidth: 0
Flags: W
HStem: 680 20G<503 513>
VStem: 503 10<46 158 168 272 282 700>
LayerCount: 2
Fore
SplineSet
503 700 m 1
 513 700 l 5
 513 282 l 5
 666.440429688 225 l 1
 666.440429688 215 l 1
 513 272 l 1
 513 168 l 1
 818.416992188 56 l 1
 818.416992188 46 l 1
 513 158 l 1
 513 46 l 1
 819 -80 l 1
 513.420898438 -80 l 1
 818.416992188 -205 l 1
 503 -205 l 1
 503 700 l 1
EndSplineSet
EndChar

StartChar: W
Encoding: 87 87 6
Width: 1024
VWidth: 0
Flags: W
HStem: 680 20G<503 513>
VStem: 503 10<46 158 168 700>
LayerCount: 2
Fore
SplineSet
503 700 m 1
 513 700 l 5
 513 168 l 5
 818.416992188 56 l 1
 818.416992188 46 l 1
 513 158 l 1
 513 46 l 1
 819 -80 l 1
 513.420898438 -80 l 1
 818.416992188 -205 l 1
 503 -205 l 1
 503 700 l 1
EndSplineSet
EndChar

StartChar: V
Encoding: 86 86 7
Width: 1024
VWidth: 0
Flags: W
HStem: 680 20G<503 513>
VStem: 503 10<46 158 168 700>
LayerCount: 2
Fore
SplineSet
503 700 m 1
 513 700 l 5
 513 168 l 5
 666.440429688 112 l 1
 666.440429688 102 l 1
 513 158 l 1
 513 46 l 1
 819 -80 l 1
 513.420898438 -80 l 1
 818.416992188 -205 l 1
 503 -205 l 1
 503 700 l 1
EndSplineSet
EndChar

StartChar: U
Encoding: 85 85 8
Width: 1024
VWidth: 0
Flags: W
HStem: 680 20G<503 513>
VStem: 503 10<46 700>
LayerCount: 2
Fore
SplineSet
503 700 m 1
 513 700 l 1
 513 46 l 1
 819 -80 l 1
 513.420898438 -80 l 1
 818.416992188 -205 l 1
 503 -205 l 1
 503 700 l 1
EndSplineSet
EndChar

StartChar: T
Encoding: 84 84 9
Width: 1024
VWidth: 0
Flags: W
HStem: 680 20G<503 513>
VStem: 503 10<46 158 168 272 282 384 394 494 504 600 610 700>
LayerCount: 2
Fore
SplineSet
503 700 m 1
 513 700 l 1
 513 610 l 1
 666 555 l 1
 666 545 l 1
 513 600 l 1
 513 504 l 1
 818.416992188 394 l 1
 818.416992188 384 l 1
 513 494 l 1
 513 394 l 1
 818.416992188 282 l 1
 818.416992188 272 l 1
 513 384 l 1
 513 282 l 1
 818.416992188 168 l 1
 818.416992188 158 l 1
 513 272 l 1
 513 168 l 1
 818.416992188 56 l 1
 818.416992188 46 l 1
 513 158 l 1
 513 46 l 1
 818.416992188 -80 l 5
 503 -80 l 5
 503 700 l 1
EndSplineSet
EndChar

StartChar: S
Encoding: 83 83 10
Width: 1024
VWidth: 0
Flags: W
HStem: 680 20G<503 513>
VStem: 503 10<46 158 168 272 282 384 394 494 504 700>
LayerCount: 2
Fore
SplineSet
503 700 m 1
 513 700 l 1
 513 504 l 1
 818.416992188 394 l 1
 818.416992188 384 l 1
 513 494 l 1
 513 394 l 1
 818.416992188 282 l 1
 818.416992188 272 l 1
 513 384 l 1
 513 282 l 1
 818.416992188 168 l 1
 818.416992188 158 l 1
 513 272 l 1
 513 168 l 1
 818.416992188 56 l 1
 818.416992188 46 l 1
 513 158 l 1
 513 46 l 1
 818.416992188 -80 l 5
 503 -80 l 5
 503 700 l 1
EndSplineSet
EndChar

StartChar: R
Encoding: 82 82 11
Width: 1024
VWidth: 0
Flags: W
HStem: 680 20G<503 513>
VStem: 503 10<46 158 168 272 282 384 394 494 504 700>
LayerCount: 2
Fore
SplineSet
503 700 m 1
 513 700 l 1
 513 504 l 1
 666.440429688 449 l 1
 666.440429688 439 l 1
 513 494 l 1
 513 394 l 1
 818.416992188 282 l 1
 818.416992188 272 l 1
 513 384 l 1
 513 282 l 1
 818.416992188 168 l 1
 818.416992188 158 l 1
 513 272 l 1
 513 168 l 1
 818.416992188 56 l 1
 818.416992188 46 l 1
 513 158 l 1
 513 46 l 1
 818.416992188 -80 l 5
 503 -80 l 5
 503 700 l 1
EndSplineSet
EndChar

StartChar: Q
Encoding: 81 81 12
Width: 1024
VWidth: 0
Flags: W
HStem: 680 20G<503 513>
VStem: 503 10<46 158 168 272 282 384 394 700>
LayerCount: 2
Fore
SplineSet
503 700 m 1
 513 700 l 1
 513 394 l 1
 818.416992188 282 l 1
 818.416992188 272 l 1
 513 384 l 1
 513 282 l 1
 818.416992188 168 l 1
 818.416992188 158 l 1
 513 272 l 1
 513 168 l 1
 818.416992188 56 l 1
 818.416992188 46 l 1
 513 158 l 1
 513 46 l 1
 818.416992188 -80 l 5
 503 -80 l 5
 503 700 l 1
EndSplineSet
EndChar

StartChar: P
Encoding: 80 80 13
Width: 1024
VWidth: 0
Flags: W
HStem: 680 20G<503 513>
VStem: 503 10<46 158 168 272 282 384 394 700>
LayerCount: 2
Fore
SplineSet
503 700 m 1
 513 700 l 1
 513 394 l 1
 666.440429688 337 l 1
 666.440429688 327 l 1
 513 384 l 1
 513 282 l 1
 818.416992188 168 l 1
 818.416992188 158 l 1
 513 272 l 1
 513 168 l 1
 818.416992188 56 l 1
 818.416992188 46 l 1
 513 158 l 1
 513 46 l 1
 818.416992188 -80 l 5
 503 -80 l 5
 503 700 l 1
EndSplineSet
EndChar

StartChar: O
Encoding: 79 79 14
Width: 1024
VWidth: 0
Flags: W
HStem: 680 20G<503 513>
VStem: 503 10<46 158 168 272 282 700>
LayerCount: 2
Fore
SplineSet
503 700 m 1
 513 700 l 1
 513 282 l 1
 818.416992188 168 l 1
 818.416992188 158 l 1
 513 272 l 1
 513 168 l 1
 818.416992188 56 l 1
 818.416992188 46 l 1
 513 158 l 1
 513 46 l 1
 818.416992188 -80 l 5
 503 -80 l 5
 503 700 l 1
EndSplineSet
EndChar

StartChar: N
Encoding: 78 78 15
Width: 1024
VWidth: 0
Flags: W
HStem: 680 20G<503 513>
VStem: 503 10<46 158 168 272 282 700>
LayerCount: 2
Fore
SplineSet
503 700 m 1
 513 700 l 1
 513 282 l 1
 666.440429688 225 l 1
 666.440429688 215 l 1
 513 272 l 1
 513 168 l 1
 818.416992188 56 l 1
 818.416992188 46 l 1
 513 158 l 1
 513 46 l 1
 818.416992188 -80 l 5
 503 -80 l 5
 503 700 l 1
EndSplineSet
EndChar

StartChar: L
Encoding: 76 76 16
Width: 1024
VWidth: 0
Flags: W
HStem: 680 20G<503 513>
VStem: 503 10<46 158 168 700>
LayerCount: 2
Fore
SplineSet
503 700 m 1
 513 700 l 1
 513 168 l 1
 666.440429688 112 l 1
 666.440429688 102 l 1
 513 158 l 1
 513 46 l 1
 818.416992188 -80 l 5
 503 -80 l 5
 503 700 l 1
EndSplineSet
EndChar

StartChar: K
Encoding: 75 75 17
Width: 1024
VWidth: 0
Flags: W
HStem: 680 20G<503 513>
VStem: 503 10<46 700>
LayerCount: 2
Fore
SplineSet
503 700 m 1
 513 700 l 1
 513 46 l 1
 818.416992188 -80 l 5
 503 -80 l 5
 503 700 l 1
EndSplineSet
EndChar

StartChar: J
Encoding: 74 74 18
Width: 1024
VWidth: 0
Flags: W
HStem: 680 20G<503 513>
VStem: 503 10<46 158 168 272 282 384 394 494 504 600 610 700>
LayerCount: 2
Fore
SplineSet
503 700 m 1
 513 700 l 1
 513 610 l 1
 666 555 l 1
 666 545 l 1
 513 600 l 1
 513 504 l 1
 818.416992188 394 l 1
 818.416992188 384 l 1
 513 494 l 1
 513 394 l 1
 818.416992188 282 l 1
 818.416992188 272 l 1
 513 384 l 1
 513 282 l 1
 818.416992188 168 l 1
 818.416992188 158 l 1
 513 272 l 1
 513 168 l 1
 818.416992188 56 l 1
 818.416992188 46 l 1
 513 158 l 1
 513 46 l 1
 503 46 l 5
 503 700 l 1
EndSplineSet
EndChar

StartChar: I
Encoding: 73 73 19
Width: 1024
VWidth: 0
Flags: W
HStem: 680 20G<503 513>
VStem: 503 10<46 158 168 272 282 384 394 494 504 700>
LayerCount: 2
Fore
SplineSet
503 700 m 1
 513 700 l 1
 513 504 l 1
 818.416992188 394 l 1
 818.416992188 384 l 1
 513 494 l 1
 513 394 l 1
 818.416992188 282 l 1
 818.416992188 272 l 1
 513 384 l 1
 513 282 l 1
 818.416992188 168 l 1
 818.416992188 158 l 1
 513 272 l 1
 513 168 l 1
 818.416992188 56 l 1
 818.416992188 46 l 1
 513 158 l 1
 513 46 l 1
 503 46 l 5
 503 700 l 1
EndSplineSet
EndChar

StartChar: H
Encoding: 72 72 20
Width: 1024
VWidth: 0
Flags: W
HStem: 680 20G<503 513>
VStem: 503 10<46 158 168 272 282 384 394 494 504 700>
LayerCount: 2
Fore
SplineSet
503 700 m 1
 513 700 l 1
 513 504 l 1
 666.440429688 449 l 1
 666.440429688 439 l 1
 513 494 l 1
 513 394 l 1
 818.416992188 282 l 1
 818.416992188 272 l 1
 513 384 l 1
 513 282 l 1
 818.416992188 168 l 1
 818.416992188 158 l 1
 513 272 l 1
 513 168 l 1
 818.416992188 56 l 1
 818.416992188 46 l 1
 513 158 l 1
 513 46 l 1
 503 46 l 5
 503 700 l 1
EndSplineSet
EndChar

StartChar: G
Encoding: 71 71 21
Width: 1024
VWidth: 0
Flags: W
HStem: 680 20G<503 513>
VStem: 503 10<46 158 168 272 282 384 394 700>
LayerCount: 2
Fore
SplineSet
503 700 m 1
 513 700 l 1
 513 394 l 1
 818.416992188 282 l 1
 818.416992188 272 l 1
 513 384 l 1
 513 282 l 1
 818.416992188 168 l 1
 818.416992188 158 l 1
 513 272 l 1
 513 168 l 1
 818.416992188 56 l 1
 818.416992188 46 l 1
 513 158 l 1
 513 46 l 1
 503 46 l 5
 503 700 l 1
EndSplineSet
EndChar

StartChar: F
Encoding: 70 70 22
Width: 1024
VWidth: 0
Flags: W
HStem: 680 20G<503 513>
VStem: 503 10<46 158 168 272 282 384 394 700>
LayerCount: 2
Fore
SplineSet
503 700 m 1
 513 700 l 1
 513 394 l 1
 666.440429688 337 l 1
 666.440429688 327 l 1
 513 384 l 1
 513 282 l 1
 818.416992188 168 l 1
 818.416992188 158 l 1
 513 272 l 1
 513 168 l 1
 818.416992188 56 l 1
 818.416992188 46 l 1
 513 158 l 1
 513 46 l 1
 503 46 l 5
 503 700 l 1
EndSplineSet
EndChar

StartChar: E
Encoding: 69 69 23
Width: 1024
VWidth: 0
Flags: W
HStem: 680 20G<503 513>
VStem: 503 10<46 158 168 272 282 700>
LayerCount: 2
Fore
SplineSet
503 700 m 1
 513 700 l 1
 513 282 l 1
 818.416992188 168 l 1
 818.416992188 158 l 1
 513 272 l 1
 513 168 l 1
 818.416992188 56 l 1
 818.416992188 46 l 1
 513 158 l 1
 513 46 l 1
 503 46 l 5
 503 700 l 1
EndSplineSet
EndChar

StartChar: D
Encoding: 68 68 24
Width: 1024
VWidth: 0
Flags: W
HStem: 680 20G<503 513>
VStem: 503 10<46 158 168 272 282 700>
LayerCount: 2
Fore
SplineSet
503 700 m 1
 513 700 l 1
 513 282 l 1
 666.440429688 225 l 1
 666.440429688 215 l 1
 513 272 l 1
 513 168 l 1
 818.416992188 56 l 1
 818.416992188 46 l 1
 513 158 l 1
 513 46 l 1
 503 46 l 5
 503 700 l 1
EndSplineSet
EndChar

StartChar: C
Encoding: 67 67 25
Width: 1024
VWidth: 0
Flags: W
HStem: 680 20G<503 513>
VStem: 503 10<46 158 168 700>
LayerCount: 2
Fore
SplineSet
503 700 m 1
 513 700 l 1
 513 168 l 1
 818.416992188 56 l 1
 818.416992188 46 l 1
 513 158 l 1
 513 46 l 1
 503 46 l 5
 503 700 l 1
EndSplineSet
EndChar

StartChar: bracketleft
Encoding: 91 91 26
Width: 1024
VWidth: 0
Flags: W
HStem: 680 20G<503 513>
VStem: 503 10<46 158 168 272 282 384 394 700>
LayerCount: 2
Fore
SplineSet
503 700 m 1
 513 700 l 5
 513 394 l 5
 818.416992188 282 l 1
 818.416992188 272 l 1
 513 384 l 1
 513 282 l 1
 818.416992188 168 l 1
 818.416992188 158 l 1
 513 272 l 1
 513 168 l 1
 818.416992188 56 l 1
 818.416992188 46 l 1
 513 158 l 1
 513 46 l 1
 819 -80 l 1
 513.420898438 -80 l 1
 818.416992188 -205 l 1
 503 -205 l 1
 503 700 l 1
EndSplineSet
EndChar

StartChar: backslash
Encoding: 92 92 27
Width: 1024
VWidth: 0
Flags: W
HStem: 680 20G<503 513>
VStem: 503 10<46 158 168 272 282 384 394 494 504 700>
LayerCount: 2
Fore
SplineSet
503 700 m 1
 513 700 l 1
 513 504 l 1
 666.440429688 449 l 5
 666.440429688 439 l 5
 513 494 l 1
 513 394 l 1
 818.416992188 282 l 1
 818.416992188 272 l 1
 513 384 l 1
 513 282 l 1
 818.416992188 168 l 1
 818.416992188 158 l 1
 513 272 l 1
 513 168 l 1
 818.416992188 56 l 1
 818.416992188 46 l 1
 513 158 l 1
 513 46 l 1
 819 -80 l 1
 513.420898438 -80 l 1
 818.416992188 -205 l 1
 503 -205 l 1
 503 700 l 1
EndSplineSet
EndChar

StartChar: bracketright
Encoding: 93 93 28
Width: 1024
VWidth: 0
Flags: W
HStem: 680 20G<503 513>
VStem: 503 10<46 158 168 272 282 384 394 494 504 700>
LayerCount: 2
Fore
SplineSet
503 700 m 1
 513 700 l 5
 513 504 l 5
 818.416992188 394 l 1
 818.416992188 384 l 1
 513 494 l 1
 513 394 l 1
 818.416992188 282 l 1
 818.416992188 272 l 1
 513 384 l 1
 513 282 l 1
 818.416992188 168 l 1
 818.416992188 158 l 1
 513 272 l 1
 513 168 l 1
 818.416992188 56 l 1
 818.416992188 46 l 1
 513 158 l 1
 513 46 l 1
 819 -80 l 1
 513.420898438 -80 l 1
 818.416992188 -205 l 1
 503 -205 l 1
 503 700 l 1
EndSplineSet
EndChar

StartChar: asciicircum
Encoding: 94 94 29
Width: 1024
VWidth: 0
Flags: W
HStem: 680 20G<503 513>
VStem: 503 10<46 158 168 272 282 384 394 494 504 600 610 700>
LayerCount: 2
Fore
SplineSet
503 700 m 5
 513 700 l 5
 513 610 l 5
 666 555 l 5
 666 545 l 5
 513 600 l 5
 513 504 l 5
 818.416992188 394 l 5
 818.416992188 384 l 5
 513 494 l 5
 513 394 l 5
 818.416992188 282 l 5
 818.416992188 272 l 5
 513 384 l 5
 513 282 l 5
 818.416992188 168 l 5
 818.416992188 158 l 5
 513 272 l 5
 513 168 l 5
 818.416992188 56 l 5
 818.416992188 46 l 5
 513 158 l 5
 513 46 l 5
 819 -80 l 5
 513.420898438 -80 l 5
 818.416992188 -205 l 5
 503 -205 l 5
 503 700 l 5
EndSplineSet
EndChar

StartChar: a
Encoding: 97 97 30
Width: 1024
VWidth: 0
Flags: W
HStem: 680 20G<503 513>
VStem: 503 10<46 158 168 272 282 384 394 700>
LayerCount: 2
Fore
SplineSet
503 700 m 5
 513 700 l 5
 513 394 l 5
 818.416992188 282 l 5
 818.416992188 272 l 5
 513 384 l 5
 513 282 l 5
 818.416992188 168 l 5
 818.416992188 158 l 5
 513 272 l 5
 513 168 l 5
 818.416992188 56 l 5
 818.416992188 46 l 5
 513 158 l 5
 513 46 l 5
 819 -80 l 5
 513.420898438 -80 l 5
 818.416992188 -205 l 5
 503 -205 l 5
 503 700 l 5
EndSplineSet
EndChar

StartChar: b
Encoding: 98 98 31
Width: 1024
VWidth: 0
Flags: W
HStem: 680 20G<503 513>
VStem: 503 10<46 158 168 272 282 384 394 494 504 700>
LayerCount: 2
Fore
SplineSet
503 700 m 1
 513 700 l 1
 513 504 l 1
 666.440429688 449 l 5
 666.440429688 439 l 5
 513 494 l 1
 513 394 l 1
 818.416992188 282 l 1
 818.416992188 272 l 1
 513 384 l 1
 513 282 l 1
 818.416992188 168 l 1
 818.416992188 158 l 1
 513 272 l 1
 513 168 l 1
 818.416992188 56 l 1
 818.416992188 46 l 1
 513 158 l 1
 513 46 l 1
 819 -80 l 1
 513.420898438 -80 l 1
 818.416992188 -205 l 1
 503 -205 l 1
 503 700 l 1
EndSplineSet
EndChar

StartChar: c
Encoding: 99 99 32
Width: 1024
VWidth: 0
Flags: W
HStem: 680 20G<503 513>
VStem: 503 10<46 158 168 272 282 384 394 494 504 700>
LayerCount: 2
Fore
SplineSet
503 700 m 1
 513 700 l 5
 513 504 l 5
 818.416992188 394 l 1
 818.416992188 384 l 1
 513 494 l 1
 513 394 l 1
 818.416992188 282 l 1
 818.416992188 272 l 1
 513 384 l 1
 513 282 l 1
 818.416992188 168 l 1
 818.416992188 158 l 1
 513 272 l 1
 513 168 l 1
 818.416992188 56 l 1
 818.416992188 46 l 1
 513 158 l 1
 513 46 l 1
 819 -80 l 1
 513.420898438 -80 l 1
 818.416992188 -205 l 1
 503 -205 l 1
 503 700 l 1
EndSplineSet
EndChar

StartChar: d
Encoding: 100 100 33
Width: 1024
VWidth: 0
Flags: W
HStem: 680 20G<503 513>
VStem: 503 10<46 158 168 272 282 384 394 494 504 600 610 700>
LayerCount: 2
Fore
SplineSet
503 700 m 1
 513 700 l 1
 513 610 l 1
 666 555 l 1
 666 545 l 1
 513 600 l 1
 513 504 l 1
 818.416992188 394 l 1
 818.416992188 384 l 1
 513 494 l 1
 513 394 l 1
 818.416992188 282 l 1
 818.416992188 272 l 1
 513 384 l 1
 513 282 l 1
 818.416992188 168 l 1
 818.416992188 158 l 1
 513 272 l 1
 513 168 l 1
 818.416992188 56 l 1
 818.416992188 46 l 1
 513 158 l 1
 513 46 l 1
 819 -80 l 1
 513.420898438 -80 l 1
 818.416992188 -205 l 1
 503 -205 l 1
 503 700 l 1
EndSplineSet
EndChar
